<svg xmlns="http://www.w3.org/2000/svg" width="299.997" height="329.265" viewBox="0 0 41 45">
  <metadata><?xpacket begin="﻿" id="W5M0MpCehiHzreSzNTczkc9d"?>
<x:xmpmeta xmlns:x="adobe:ns:meta/" x:xmptk="Adobe XMP Core 5.6-c138 79.159824, 2016/09/14-01:09:01        ">
   <rdf:RDF xmlns:rdf="http://www.w3.org/1999/02/22-rdf-syntax-ns#">
      <rdf:Description rdf:about=""/>
   </rdf:RDF>
</x:xmpmeta>
                                                                                                    
                                                                                                    
                                                                                                    
                                                                                                    
                                                                                                    
                                                                                                    
                                                                                                    
                                                                                                    
                                                                                                    
                                                                                                    
                                                                                                    
                                                                                                    
                                                                                                    
                                                                                                    
                                                                                                    
                                                                                                    
                                                                                                    
                                                                                                    
                                                                                                    
                                                                                                    
                           
<?xpacket end="w"?></metadata>
<defs>
    <style>
      .cls-1 {
        fill: #efc823;
      }

      .cls-2 {
        fill: #fff;
        fill-rule: evenodd;
      }
    </style>
  </defs>
  <ellipse class="cls-1" cx="20.5" cy="22.5" rx="20.5" ry="22.5"/>
  <path id="_" data-name="" class="cls-2" d="M5.969,14.575a1.4,1.4,0,0,1,1.406,1.406V28.169a1.4,1.4,0,0,1-1.406,1.406H3.156A1.4,1.4,0,0,1,1.75,28.169V15.981a1.4,1.4,0,0,1,1.406-1.406H5.969ZM4.563,27.935a1.172,1.172,0,1,0-.82-1.992A1.172,1.172,0,0,0,4.563,27.935ZM37.844,14.575a1.4,1.4,0,0,1,1.406,1.406V28.169a1.4,1.4,0,0,1-1.406,1.406H35.031a1.4,1.4,0,0,1-1.406-1.406V15.981a1.4,1.4,0,0,1,1.406-1.406h2.813ZM36.438,27.935a1.2,1.2,0,1,0-.82-0.352A1.124,1.124,0,0,0,36.438,27.935ZM30.227,13.462a4.85,4.85,0,0,0-3.691-1.7h-2.7a4.188,4.188,0,0,0-1.846.41,4.246,4.246,0,0,0-1.436,1.113L16.633,17.8a2.852,2.852,0,0,0,0,3.75,3.247,3.247,0,0,0,2.578,1.26,3.312,3.312,0,0,0,2.637-1.143l3.516-3.75a0.558,0.558,0,0,1,.645.059,0.5,0.5,0,0,1,0,.645l4.746,5.8a3.205,3.205,0,0,1,.82,2.344h1.113V16.274Zm-0.176,11.6-4.687-5.742-2.812,2.93a4.177,4.177,0,0,1-2.109,1.318,4.578,4.578,0,0,1-2.461-.029,4.215,4.215,0,0,1-2.109-1.406,3.728,3.728,0,0,1-.879-2.461,3.589,3.589,0,0,1,.938-2.461l3.75-4.336a3.6,3.6,0,0,0-2.637-1.113H14.875a4.068,4.068,0,0,0-2.988,1.23L8.313,15.981V26.763l5.508,5.625a6.4,6.4,0,0,0,1.934,1.318,5.676,5.676,0,0,0,2.344.5,3.168,3.168,0,0,0,2.344-.879,2.643,2.643,0,0,0,2.139-.205A2.564,2.564,0,0,0,23.9,31.567a3.394,3.394,0,0,0,2.93-1.465,1.749,1.749,0,0,0,.352-1.113,1.019,1.019,0,0,0,.586.146,3.563,3.563,0,0,0,1-.088,2.465,2.465,0,0,0,1.113-.645,2.155,2.155,0,0,0,.762-1.611A2.26,2.26,0,0,0,30.051,25.064Z"/>
</svg>
