<svg xmlns="http://www.w3.org/2000/svg" width="299.997" height="329.265" viewBox="0 0 41 45">
  <metadata><?xpacket begin="﻿" id="W5M0MpCehiHzreSzNTczkc9d"?>
<x:xmpmeta xmlns:x="adobe:ns:meta/" x:xmptk="Adobe XMP Core 5.6-c138 79.159824, 2016/09/14-01:09:01        ">
   <rdf:RDF xmlns:rdf="http://www.w3.org/1999/02/22-rdf-syntax-ns#">
      <rdf:Description rdf:about=""/>
   </rdf:RDF>
</x:xmpmeta>
                                                                                                    
                                                                                                    
                                                                                                    
                                                                                                    
                                                                                                    
                                                                                                    
                                                                                                    
                                                                                                    
                                                                                                    
                                                                                                    
                                                                                                    
                                                                                                    
                                                                                                    
                                                                                                    
                                                                                                    
                                                                                                    
                                                                                                    
                                                                                                    
                                                                                                    
                                                                                                    
                           
<?xpacket end="w"?></metadata>
<defs>
    <style>
      .cls-1 {
        fill: #efc823;
      }

      .cls-2 {
        fill: #fff;
        fill-rule: evenodd;
      }
    </style>
  </defs>
  <ellipse class="cls-1" cx="20.5" cy="22.5" rx="20.5" ry="22.5"/>
  <path id="_" data-name="" class="cls-2" d="M17.522,24.648h2.143V19.827H19.632a5.563,5.563,0,0,1-.921.954l-1.289-1.339L19.9,17.148h1.909v7.5h2.143v1.607H17.522V24.648Zm7.224-7.3a5.183,5.183,0,0,0-1.7-1.691,4.414,4.414,0,0,0-4.621,0,5.18,5.18,0,0,0-1.7,1.691,9.017,9.017,0,0,0-1,2.243,8.215,8.215,0,0,0,0,4.755,9.01,9.01,0,0,0,1,2.243,5.177,5.177,0,0,0,1.7,1.691,4.414,4.414,0,0,0,4.621,0,5.18,5.18,0,0,0,1.7-1.691,9.021,9.021,0,0,0,1-2.243,8.215,8.215,0,0,0,0-4.754A9.028,9.028,0,0,0,24.746,17.349Zm6.889,10.162a4.129,4.129,0,0,0-1.256,3.03H11.094a4.129,4.129,0,0,0-1.256-3.03,4.129,4.129,0,0,0-3.03-1.256V17.684a4.13,4.13,0,0,0,3.03-1.256,4.129,4.129,0,0,0,1.256-3.03H30.38a4.287,4.287,0,0,0,4.286,4.286v8.571A4.129,4.129,0,0,0,31.635,27.511ZM36.49,11.573a1.03,1.03,0,0,0-.753-0.318h-30a1.086,1.086,0,0,0-1.071,1.071V31.612a1.086,1.086,0,0,0,1.071,1.072h30a1.086,1.086,0,0,0,1.071-1.072V12.327A1.03,1.03,0,0,0,36.49,11.573Z"/>
</svg>
