<svg xmlns="http://www.w3.org/2000/svg" width="96.181" height="79.2" viewBox="0 0 87.437 72">
  <metadata><?xpacket begin="﻿" id="W5M0MpCehiHzreSzNTczkc9d"?>
<x:xmpmeta xmlns:x="adobe:ns:meta/" x:xmptk="Adobe XMP Core 5.6-c138 79.159824, 2016/09/14-01:09:01        ">
   <rdf:RDF xmlns:rdf="http://www.w3.org/1999/02/22-rdf-syntax-ns#">
      <rdf:Description rdf:about=""/>
   </rdf:RDF>
</x:xmpmeta>
                                                                                                    
                                                                                                    
                                                                                                    
                                                                                                    
                                                                                                    
                                                                                                    
                                                                                                    
                                                                                                    
                                                                                                    
                                                                                                    
                                                                                                    
                                                                                                    
                                                                                                    
                                                                                                    
                                                                                                    
                                                                                                    
                                                                                                    
                                                                                                    
                                                                                                    
                                                                                                    
                           
<?xpacket end="w"?></metadata>
<defs>
    <style>
      .cls-1 {
        fill: #32373b;
        fill-rule: evenodd;
      }
    </style>
  </defs>
  <path id="_" data-name="" class="cls-1" d="M418.427,743.218l15.428-6.59v12.616l-15.428,7.715V743.218Zm-18.8-11.451,16.232-6.951,16.233,6.951-16.233,6.951Zm59.947,11.451L475,736.628v12.616l-15.428,7.715V743.218Zm-18.8-11.451L457,724.816l16.232,6.951L457,738.718ZM439,716.218l15.429-6.59v10.688L439,726.945V716.218Zm-20.29-12.094,17.719-7.594,17.719,7.594-17.719,7.594ZM479.3,729.718a5.206,5.206,0,0,0-2.29-1.929l-17.437-7.473V704.244a4.949,4.949,0,0,0-.864-2.812,5.388,5.388,0,0,0-2.27-1.929l-18-7.714a5.221,5.221,0,0,0-4.018,0l-18,7.714a5.376,5.376,0,0,0-2.27,1.929,4.934,4.934,0,0,0-.864,2.812v16.072l-17.438,7.473a5.388,5.388,0,0,0-2.27,1.929,4.938,4.938,0,0,0-.863,2.812v16.714a5.053,5.053,0,0,0,.763,2.692,4.907,4.907,0,0,0,2.089,1.889l18,9a4.949,4.949,0,0,0,4.581,0l18-9a0.9,0.9,0,0,0,.281-0.161,2.778,2.778,0,0,0,.281.161l18,9a4.947,4.947,0,0,0,4.58,0l18-9a4.916,4.916,0,0,0,2.09-1.889,5.062,5.062,0,0,0,.763-2.692V732.53A5.019,5.019,0,0,0,479.3,729.718Z" transform="translate(-392.719 -691.375)"/>
</svg>
