<svg xmlns="http://www.w3.org/2000/svg" width="250.25" height="61.016" viewBox="0 0 227.5 55.469">
  <metadata><?xpacket begin="﻿" id="W5M0MpCehiHzreSzNTczkc9d"?>
<x:xmpmeta xmlns:x="adobe:ns:meta/" x:xmptk="Adobe XMP Core 5.6-c138 79.159824, 2016/09/14-01:09:01        ">
   <rdf:RDF xmlns:rdf="http://www.w3.org/1999/02/22-rdf-syntax-ns#">
      <rdf:Description rdf:about=""/>
   </rdf:RDF>
</x:xmpmeta>
                                                                                                    
                                                                                                    
                                                                                                    
                                                                                                    
                                                                                                    
                                                                                                    
                                                                                                    
                                                                                                    
                                                                                                    
                                                                                                    
                                                                                                    
                                                                                                    
                                                                                                    
                                                                                                    
                                                                                                    
                                                                                                    
                                                                                                    
                                                                                                    
                                                                                                    
                                                                                                    
                           
<?xpacket end="w"?></metadata>
<defs>
    <style>
      .cls-1 {
        fill: #efc823;
        fill-rule: evenodd;
      }
    </style>
  </defs>
  <path class="cls-1" d="M552.028,52.29a20.057,20.057,0,0,1,2.374.938l1.772-4.556a15.232,15.232,0,0,0-6.636-1.509,10.887,10.887,0,0,0-5.53,1.355,8.964,8.964,0,0,0-3.6,3.875,12.97,12.97,0,0,0-1.253,5.845q0,5.317,2.586,8.13t7.434,2.813a14.831,14.831,0,0,0,6.064-1.187V63.1a27.542,27.542,0,0,1-2.68.952,9.633,9.633,0,0,1-2.754.4q-4.7,0-4.7-6.182a8.166,8.166,0,0,1,1.157-4.665,3.69,3.69,0,0,1,3.223-1.692A8.292,8.292,0,0,1,552.028,52.29Zm20.078,3.728a7.1,7.1,0,0,0-2.893-2.981A8.763,8.763,0,0,0,564.892,52a8.181,8.181,0,0,0-6.145,2.249,8.656,8.656,0,0,0-2.19,6.306,8.72,8.72,0,0,0,2.233,6.3A7.944,7.944,0,0,0,564.8,69.18a8.1,8.1,0,0,0,6.13-2.278,8.785,8.785,0,0,0,2.19-6.35A9.623,9.623,0,0,0,572.106,56.018Zm-9.163,1.318a2.206,2.206,0,0,1,3.794.007,7.246,7.246,0,0,1,.557,3.208,7.633,7.633,0,0,1-.549,3.259,1.93,1.93,0,0,1-1.883,1.121,1.986,1.986,0,0,1-1.919-1.121,7.369,7.369,0,0,1-.571-3.259A7.073,7.073,0,0,1,562.943,57.336Zm27.849,11.55v-10.8a6.239,6.239,0,0,0-1.531-4.5,5.657,5.657,0,0,0-4.285-1.6,7.174,7.174,0,0,0-2.981.586,4.536,4.536,0,0,0-2.028,1.758H579.63l-0.718-2.051h-4.321v16.6h5.727V61.621a8.762,8.762,0,0,1,.645-3.97,2.215,2.215,0,0,1,2.094-1.157,1.627,1.627,0,0,1,1.531.842,5.2,5.2,0,0,1,.476,2.5v9.053h5.728ZM605.3,61.526a4.221,4.221,0,0,0-1.26-1.619,10.888,10.888,0,0,0-2.6-1.406,26.47,26.47,0,0,1-2.835-1.223,0.857,0.857,0,0,1-.49-0.725q0-.688,1.406-0.689a8.048,8.048,0,0,1,2.08.359,17.473,17.473,0,0,1,2.417.872l1.553-3.691a18.351,18.351,0,0,0-3-1.047A12.75,12.75,0,0,0,599.5,52a8.534,8.534,0,0,0-5.054,1.289,4.188,4.188,0,0,0-1.787,3.6,4.85,4.85,0,0,0,.908,3.025,7.532,7.532,0,0,0,3.193,2.131,23.737,23.737,0,0,1,3.025,1.34,0.961,0.961,0,0,1,.52.784q0,0.85-1.86.85a12.3,12.3,0,0,1-2.834-.381,17.231,17.231,0,0,1-2.923-.967v4.585a13.62,13.62,0,0,0,2.783.725,22.666,22.666,0,0,0,3.208.2,8.572,8.572,0,0,0,5.215-1.362,4.719,4.719,0,0,0,1.817-4.028A5.7,5.7,0,0,0,605.3,61.526Zm8.358,1.516v-6.46h4.073V52.29h-4.073V48.965h-3.75l-1.479,3.486-2.549,1.8v2.329h2.007v6.841a6.333,6.333,0,0,0,1.274,4.343,5.362,5.362,0,0,0,4.161,1.414,12.485,12.485,0,0,0,2.453-.212,11.281,11.281,0,0,0,2.2-.71V64.082a8.521,8.521,0,0,1-2.769.571,1.4,1.4,0,0,1-1.553-1.611h0ZM626.517,52.81a5.734,5.734,0,0,0-2,2.131h-0.279l-0.893-2.651h-4.263v16.6h5.728V60.728a3.36,3.36,0,0,1,.849-2.468,3.715,3.715,0,0,1,2.725-.857,8.424,8.424,0,0,1,1.948.176l0.513-5.405-0.322-.059A8.308,8.308,0,0,0,629.1,52,4.787,4.787,0,0,0,626.517,52.81ZM647.5,68.887V52.29h-5.728v7.266a8.861,8.861,0,0,1-.63,3.933,2.206,2.206,0,0,1-2.109,1.165,1.6,1.6,0,0,1-1.516-.835,5.2,5.2,0,0,1-.461-2.461V52.29h-5.728V63.1a6.23,6.23,0,0,0,1.523,4.49,5.627,5.627,0,0,0,4.263,1.589,6.959,6.959,0,0,0,3.01-.608,4.66,4.66,0,0,0,2-1.751h0.337l0.718,2.065H647.5Zm15.031-1.172V63.159a8.909,8.909,0,0,1-4.834,1.465q-2.945,0-2.944-3.984a5.272,5.272,0,0,1,.761-3.062,2.479,2.479,0,0,1,2.154-1.084,6.185,6.185,0,0,1,1.831.271,18.478,18.478,0,0,1,1.919.725l1.684-4.233A12.1,12.1,0,0,0,657.671,52a9.146,9.146,0,0,0-6.629,14.985q2.1,2.2,6.175,2.2a9.41,9.41,0,0,0,5.317-1.465h0Zm8.073-4.673v-6.46h4.072V52.29h-4.072V48.965h-3.75l-1.48,3.486-2.548,1.8v2.329h2.006v6.841a6.328,6.328,0,0,0,1.275,4.343,5.36,5.36,0,0,0,4.16,1.414,12.5,12.5,0,0,0,2.454-.212,11.252,11.252,0,0,0,2.2-.71V64.082a8.516,8.516,0,0,1-2.768.571,1.4,1.4,0,0,1-1.553-1.611h0ZM681.785,52.29h-5.727v16.6h5.727V52.29Zm-2.841-1.611q3.062,0,3.061-2.52a2.4,2.4,0,0,0-.732-1.9,4.549,4.549,0,0,0-4.644-.015,2.422,2.422,0,0,0-.718,1.919q0,2.52,3.033,2.52h0Zm19.872,5.339a7.1,7.1,0,0,0-2.893-2.981A8.763,8.763,0,0,0,691.6,52a8.181,8.181,0,0,0-6.145,2.249,8.66,8.66,0,0,0-2.19,6.306,8.716,8.716,0,0,0,2.234,6.3,7.941,7.941,0,0,0,6.013,2.329,8.1,8.1,0,0,0,6.13-2.278,8.785,8.785,0,0,0,2.19-6.35A9.623,9.623,0,0,0,698.816,56.018Zm-9.163,1.318a2.206,2.206,0,0,1,3.794.007A7.246,7.246,0,0,1,694,60.552a7.633,7.633,0,0,1-.549,3.259,1.93,1.93,0,0,1-1.883,1.121,1.986,1.986,0,0,1-1.919-1.121,7.383,7.383,0,0,1-.571-3.259A7.087,7.087,0,0,1,689.653,57.336ZM717.5,68.887v-10.8a6.239,6.239,0,0,0-1.531-4.5,5.656,5.656,0,0,0-4.285-1.6,7.166,7.166,0,0,0-2.98.586,4.534,4.534,0,0,0-2.029,1.758H706.34l-0.718-2.051H701.3v16.6h5.727V61.621a8.762,8.762,0,0,1,.645-3.97,2.215,2.215,0,0,1,2.1-1.157,1.626,1.626,0,0,1,1.53.842,5.187,5.187,0,0,1,.476,2.5v9.053H717.5Zm-171.743,25V72.471h-5.816V93.887h5.816Zm18.693,0v-10.8a6.234,6.234,0,0,0-1.531-4.5,5.653,5.653,0,0,0-4.284-1.6,7.171,7.171,0,0,0-2.981.586,4.534,4.534,0,0,0-2.029,1.758H553.29l-0.718-2.051h-4.321v16.6h5.727V86.621a8.762,8.762,0,0,1,.645-3.97,2.216,2.216,0,0,1,2.095-1.157,1.626,1.626,0,0,1,1.53.842,5.185,5.185,0,0,1,.477,2.5v9.053h5.727Zm12.233-16.6h-3.53V76.851a2.23,2.23,0,0,1,.3-1.311,1.119,1.119,0,0,1,.96-0.4,7.693,7.693,0,0,1,2.065.293l1.231-3.706a17.27,17.27,0,0,0-2.366-.615,12.7,12.7,0,0,0-2.161-.176,5.645,5.645,0,0,0-4.3,1.436q-1.341,1.436-1.34,4.717v0.278L565.23,78.77v2.813h2.2v12.3h5.728v-12.3h3.53V77.29Zm15.288,3.728a7.1,7.1,0,0,0-2.893-2.981A8.766,8.766,0,0,0,584.758,77a8.184,8.184,0,0,0-6.145,2.249,8.66,8.66,0,0,0-2.19,6.306,8.721,8.721,0,0,0,2.234,6.3,7.942,7.942,0,0,0,6.013,2.329A8.1,8.1,0,0,0,590.8,91.9a8.785,8.785,0,0,0,2.19-6.35A9.635,9.635,0,0,0,591.973,81.018Zm-9.163,1.318a2.206,2.206,0,0,1,3.794.007,7.246,7.246,0,0,1,.557,3.208,7.616,7.616,0,0,1-.55,3.259,1.928,1.928,0,0,1-1.882,1.121,1.985,1.985,0,0,1-1.919-1.121,7.369,7.369,0,0,1-.571-3.259A7.073,7.073,0,0,1,582.81,82.336Zm24.062,4.189a4.221,4.221,0,0,0-1.26-1.619,10.888,10.888,0,0,0-2.6-1.406,26.312,26.312,0,0,1-2.834-1.223,0.856,0.856,0,0,1-.491-0.725q0-.688,1.406-0.689a8.041,8.041,0,0,1,2.08.359,17.473,17.473,0,0,1,2.417.872l1.553-3.691a18.351,18.351,0,0,0-3-1.047A12.75,12.75,0,0,0,601.064,77a8.534,8.534,0,0,0-5.054,1.289,4.191,4.191,0,0,0-1.787,3.6,4.856,4.856,0,0,0,.908,3.025,7.536,7.536,0,0,0,3.194,2.131,23.766,23.766,0,0,1,3.024,1.34,0.961,0.961,0,0,1,.52.784q0,0.85-1.86.85a12.3,12.3,0,0,1-2.834-.381,17.231,17.231,0,0,1-2.923-.967v4.585a13.62,13.62,0,0,0,2.783.725,22.666,22.666,0,0,0,3.208.2,8.572,8.572,0,0,0,5.215-1.362,4.719,4.719,0,0,0,1.817-4.028A5.7,5.7,0,0,0,606.872,86.526Zm6.308,7.126a7.277,7.277,0,0,1-.908,1.751,3.052,3.052,0,0,1-1,.828,2.886,2.886,0,0,1-1.333.293,8.068,8.068,0,0,1-1.773-.176v4.5a11.534,11.534,0,0,0,2.344.249,7.737,7.737,0,0,0,4.8-1.392,10.373,10.373,0,0,0,3.1-4.761l6.563-17.651h-5.845l-2.886,9.551a9.99,9.99,0,0,0-.351,1.772h-0.117a9.328,9.328,0,0,0-.279-1.8l-2.812-9.521h-6.035Zm24.384-7.126a4.221,4.221,0,0,0-1.26-1.619,10.888,10.888,0,0,0-2.6-1.406,26.312,26.312,0,0,1-2.834-1.223,0.856,0.856,0,0,1-.491-0.725q0-.688,1.406-0.689a8.041,8.041,0,0,1,2.08.359,17.473,17.473,0,0,1,2.417.872l1.553-3.691a18.351,18.351,0,0,0-3-1.047A12.75,12.75,0,0,0,631.756,77a8.534,8.534,0,0,0-5.054,1.289,4.191,4.191,0,0,0-1.787,3.6,4.856,4.856,0,0,0,.908,3.025,7.536,7.536,0,0,0,3.194,2.131,23.766,23.766,0,0,1,3.024,1.34,0.961,0.961,0,0,1,.52.784q0,0.85-1.86.85a12.3,12.3,0,0,1-2.834-.381,17.231,17.231,0,0,1-2.923-.967v4.585a13.62,13.62,0,0,0,2.783.725,22.671,22.671,0,0,0,3.209.2,8.571,8.571,0,0,0,5.214-1.362,4.719,4.719,0,0,0,1.817-4.028A5.7,5.7,0,0,0,637.564,86.526ZM490,83l20,11V71l19-12-21-9L490,60V83Zm28-6v9l8-5V72Z" transform="translate(-490 -45.625)"/>
</svg>
