<svg xmlns="http://www.w3.org/2000/svg" width="299.997" height="329.265" viewBox="0 0 41 45">
  <metadata><?xpacket begin="﻿" id="W5M0MpCehiHzreSzNTczkc9d"?>
<x:xmpmeta xmlns:x="adobe:ns:meta/" x:xmptk="Adobe XMP Core 5.6-c138 79.159824, 2016/09/14-01:09:01        ">
   <rdf:RDF xmlns:rdf="http://www.w3.org/1999/02/22-rdf-syntax-ns#">
      <rdf:Description rdf:about=""/>
   </rdf:RDF>
</x:xmpmeta>
                                                                                                    
                                                                                                    
                                                                                                    
                                                                                                    
                                                                                                    
                                                                                                    
                                                                                                    
                                                                                                    
                                                                                                    
                                                                                                    
                                                                                                    
                                                                                                    
                                                                                                    
                                                                                                    
                                                                                                    
                                                                                                    
                                                                                                    
                                                                                                    
                                                                                                    
                                                                                                    
                           
<?xpacket end="w"?></metadata>
<defs>
    <style>
      .cls-1 {
        fill: #efc823;
      }

      .cls-2 {
        fill: #fff;
        fill-rule: evenodd;
      }
    </style>
  </defs>
  <ellipse class="cls-1" cx="20.5" cy="22.5" rx="20.5" ry="22.5"/>
  <path id="_" data-name="" class="cls-2" d="M28.026,26.684l-7.8-7.8a0.527,0.527,0,0,0-.77,0l-7.8,7.8a0.527,0.527,0,0,0,0,.77l0.837,0.837a0.527,0.527,0,0,0,.77,0l6.579-6.579,6.579,6.579a0.527,0.527,0,0,0,.77,0l0.837-.837a0.527,0.527,0,0,0,0-.77h0Zm0-6.429-7.8-7.8a0.527,0.527,0,0,0-.77,0l-7.8,7.8a0.527,0.527,0,0,0,0,.77l0.837,0.837a0.527,0.527,0,0,0,.77,0l6.579-6.579,6.579,6.579a0.527,0.527,0,0,0,.77,0l0.837-.837a0.527,0.527,0,0,0,0-.77h0Z"/>
</svg>
