<svg xmlns="http://www.w3.org/2000/svg" width="299.997" height="329.265" viewBox="0 0 41 45">
  <metadata><?xpacket begin="﻿" id="W5M0MpCehiHzreSzNTczkc9d"?>
<x:xmpmeta xmlns:x="adobe:ns:meta/" x:xmptk="Adobe XMP Core 5.6-c138 79.159824, 2016/09/14-01:09:01        ">
   <rdf:RDF xmlns:rdf="http://www.w3.org/1999/02/22-rdf-syntax-ns#">
      <rdf:Description rdf:about=""/>
   </rdf:RDF>
</x:xmpmeta>
                                                                                                    
                                                                                                    
                                                                                                    
                                                                                                    
                                                                                                    
                                                                                                    
                                                                                                    
                                                                                                    
                                                                                                    
                                                                                                    
                                                                                                    
                                                                                                    
                                                                                                    
                                                                                                    
                                                                                                    
                                                                                                    
                                                                                                    
                                                                                                    
                                                                                                    
                                                                                                    
                           
<?xpacket end="w"?></metadata>
<defs>
    <style>
      .cls-1 {
        fill: #efc823;
      }

      .cls-2 {
        fill: #fff;
        fill-rule: evenodd;
      }
    </style>
  </defs>
  <ellipse class="cls-1" cx="20.5" cy="22.5" rx="20.5" ry="22.5"/>
  <path id="_" data-name="" class="cls-2" d="M15.466,28.51a0.516,0.516,0,0,0-.377-0.159H14.018a0.543,0.543,0,0,0-.536.536v1.071a0.543,0.543,0,0,0,.536.536h1.072a0.543,0.543,0,0,0,.536-0.536V28.887A0.516,0.516,0,0,0,15.466,28.51Zm0-4.286a0.516,0.516,0,0,0-.377-0.159H14.018a0.543,0.543,0,0,0-.536.536v1.071a0.543,0.543,0,0,0,.536.536h1.072a0.543,0.543,0,0,0,.536-0.536V24.6A0.516,0.516,0,0,0,15.466,24.225Zm4.286,0a0.516,0.516,0,0,0-.377-0.159H18.3a0.543,0.543,0,0,0-.536.536v1.071a0.543,0.543,0,0,0,.536.536h1.071a0.543,0.543,0,0,0,.536-0.536V24.6A0.516,0.516,0,0,0,19.752,24.225Zm-4.286-4.286a0.516,0.516,0,0,0-.377-0.159H14.018a0.543,0.543,0,0,0-.536.536v1.071a0.543,0.543,0,0,0,.536.536h1.072a0.543,0.543,0,0,0,.536-0.536V20.316A0.516,0.516,0,0,0,15.466,19.939ZM28.323,28.51a0.516,0.516,0,0,0-.377-0.159H26.875a0.543,0.543,0,0,0-.536.536v1.071a0.543,0.543,0,0,0,.536.536h1.071a0.543,0.543,0,0,0,.536-0.536V28.887A0.516,0.516,0,0,0,28.323,28.51Zm-4.286-4.286a0.516,0.516,0,0,0-.377-0.159H22.589a0.543,0.543,0,0,0-.536.536v1.071a0.543,0.543,0,0,0,.536.536h1.071a0.543,0.543,0,0,0,.536-0.536V24.6A0.516,0.516,0,0,0,24.037,24.225Zm-4.286-4.286a0.516,0.516,0,0,0-.377-0.159H18.3a0.543,0.543,0,0,0-.536.536v1.071a0.543,0.543,0,0,0,.536.536h1.071a0.543,0.543,0,0,0,.536-0.536V20.316A0.516,0.516,0,0,0,19.752,19.939Zm-4.286-4.286a0.516,0.516,0,0,0-.377-0.159H14.018a0.543,0.543,0,0,0-.536.536V17.1a0.543,0.543,0,0,0,.536.536h1.072a0.543,0.543,0,0,0,.536-0.536V16.03A0.516,0.516,0,0,0,15.466,15.653Zm12.857,8.571a0.516,0.516,0,0,0-.377-0.159H26.875a0.543,0.543,0,0,0-.536.536v1.071a0.543,0.543,0,0,0,.536.536h1.071a0.543,0.543,0,0,0,.536-0.536V24.6A0.516,0.516,0,0,0,28.323,24.225Zm-4.286-4.286a0.516,0.516,0,0,0-.377-0.159H22.589a0.543,0.543,0,0,0-.536.536v1.071a0.543,0.543,0,0,0,.536.536h1.071a0.543,0.543,0,0,0,.536-0.536V20.316A0.516,0.516,0,0,0,24.037,19.939Zm-4.286-4.286a0.516,0.516,0,0,0-.377-0.159H18.3a0.543,0.543,0,0,0-.536.536V17.1a0.543,0.543,0,0,0,.536.536h1.071a0.543,0.543,0,0,0,.536-0.536V16.03A0.516,0.516,0,0,0,19.752,15.653Zm-4.286-4.286a0.516,0.516,0,0,0-.377-0.159H14.018a0.543,0.543,0,0,0-.536.536v1.072a0.543,0.543,0,0,0,.536.536h1.072a0.543,0.543,0,0,0,.536-0.536V11.744A0.516,0.516,0,0,0,15.466,11.368Zm12.857,8.571a0.516,0.516,0,0,0-.377-0.159H26.875a0.543,0.543,0,0,0-.536.536v1.071a0.543,0.543,0,0,0,.536.536h1.071a0.543,0.543,0,0,0,.536-0.536V20.316A0.516,0.516,0,0,0,28.323,19.939Zm-4.286-4.286a0.516,0.516,0,0,0-.377-0.159H22.589a0.543,0.543,0,0,0-.536.536V17.1a0.543,0.543,0,0,0,.536.536h1.071A0.543,0.543,0,0,0,24.2,17.1V16.03A0.516,0.516,0,0,0,24.037,15.653Zm-4.286-4.286a0.516,0.516,0,0,0-.377-0.159H18.3a0.543,0.543,0,0,0-.536.536v1.072a0.543,0.543,0,0,0,.536.536h1.071a0.543,0.543,0,0,0,.536-0.536V11.744A0.516,0.516,0,0,0,19.752,11.368Zm8.571,4.286a0.516,0.516,0,0,0-.377-0.159H26.875a0.543,0.543,0,0,0-.536.536V17.1a0.543,0.543,0,0,0,.536.536h1.071a0.543,0.543,0,0,0,.536-0.536V16.03A0.516,0.516,0,0,0,28.323,15.653Zm-4.286-4.286a0.516,0.516,0,0,0-.377-0.159H22.589a0.543,0.543,0,0,0-.536.536v1.072a0.543,0.543,0,0,0,.536.536h1.071a0.543,0.543,0,0,0,.536-0.536V11.744A0.516,0.516,0,0,0,24.037,11.368Zm4.286,0a0.516,0.516,0,0,0-.377-0.159H26.875a0.543,0.543,0,0,0-.536.536v1.072a0.543,0.543,0,0,0,.536.536h1.071a0.543,0.543,0,0,0,.536-0.536V11.744A0.516,0.516,0,0,0,28.323,11.368ZM24.2,31.03a0.543,0.543,0,0,0-.536-0.536H18.3a0.543,0.543,0,0,0-.536.536v3.75H11.339V9.066H30.625V34.78H24.2V31.03ZM32.45,7.241A1.031,1.031,0,0,0,31.7,6.923H10.268A1.086,1.086,0,0,0,9.2,7.994V35.851a1.086,1.086,0,0,0,1.071,1.071H31.7a1.086,1.086,0,0,0,1.071-1.071V7.994A1.031,1.031,0,0,0,32.45,7.241Z"/>
</svg>
