<svg xmlns="http://www.w3.org/2000/svg" width="299.997" height="329.265" viewBox="0 0 41 45">
  <metadata><?xpacket begin="﻿" id="W5M0MpCehiHzreSzNTczkc9d"?>
<x:xmpmeta xmlns:x="adobe:ns:meta/" x:xmptk="Adobe XMP Core 5.6-c138 79.159824, 2016/09/14-01:09:01        ">
   <rdf:RDF xmlns:rdf="http://www.w3.org/1999/02/22-rdf-syntax-ns#">
      <rdf:Description rdf:about=""/>
   </rdf:RDF>
</x:xmpmeta>
                                                                                                    
                                                                                                    
                                                                                                    
                                                                                                    
                                                                                                    
                                                                                                    
                                                                                                    
                                                                                                    
                                                                                                    
                                                                                                    
                                                                                                    
                                                                                                    
                                                                                                    
                                                                                                    
                                                                                                    
                                                                                                    
                                                                                                    
                                                                                                    
                                                                                                    
                                                                                                    
                           
<?xpacket end="w"?></metadata>
<defs>
    <style>
      .cls-1 {
        fill: #efc823;
      }

      .cls-2 {
        fill: #fff;
        fill-rule: evenodd;
      }
    </style>
  </defs>
  <ellipse class="cls-1" cx="20.5" cy="22.5" rx="20.5" ry="22.5"/>
  <path id="_" data-name="" class="cls-2" d="M32.886,9.872a14.6,14.6,0,0,1,.351,2.578q0.059,0.82.059,2.285a12.742,12.742,0,0,1-2.168,7.383A18.342,18.342,0,0,1,25.8,27.1v6.094a2.818,2.818,0,0,1-.41,1.494,2.617,2.617,0,0,1-1.172,1.025l-5.742,2.93a1.446,1.446,0,0,1-1.377-.117,1.3,1.3,0,0,1-.674-1.172V31.786q-1.406.645-2.226,1.055a0.872,0.872,0,0,1-.557.059,0.916,0.916,0,0,1-.5-0.234l-3.75-3.75a0.916,0.916,0,0,1-.234-0.5,0.871,0.871,0,0,1,.059-0.557q0.469-.937,1.055-2.227H4.7a1.3,1.3,0,0,1-1.172-.674,1.341,1.341,0,0,1-.059-1.377l2.871-5.8a2.684,2.684,0,0,1,1.025-1.113,2.818,2.818,0,0,1,1.494-.41h6.094a17.752,17.752,0,0,1,4.922-5.332A13.016,13.016,0,0,1,27.32,8.759q1.523,0,2.285.059a14.6,14.6,0,0,1,2.578.352A0.829,0.829,0,0,1,32.886,9.872Zm-6.152,8.262a2.817,2.817,0,0,0,1.992-4.8,2.817,2.817,0,0,0-3.984,3.984A2.712,2.712,0,0,0,26.734,18.134Z"/>
</svg>
