<svg xmlns="http://www.w3.org/2000/svg" width="79.167" height="79.234" viewBox="0 0 71.97 72.031">
  <metadata><?xpacket begin="﻿" id="W5M0MpCehiHzreSzNTczkc9d"?>
<x:xmpmeta xmlns:x="adobe:ns:meta/" x:xmptk="Adobe XMP Core 5.6-c138 79.159824, 2016/09/14-01:09:01        ">
   <rdf:RDF xmlns:rdf="http://www.w3.org/1999/02/22-rdf-syntax-ns#">
      <rdf:Description rdf:about=""/>
   </rdf:RDF>
</x:xmpmeta>
                                                                                                    
                                                                                                    
                                                                                                    
                                                                                                    
                                                                                                    
                                                                                                    
                                                                                                    
                                                                                                    
                                                                                                    
                                                                                                    
                                                                                                    
                                                                                                    
                                                                                                    
                                                                                                    
                                                                                                    
                                                                                                    
                                                                                                    
                                                                                                    
                                                                                                    
                                                                                                    
                           
<?xpacket end="w"?></metadata>
<defs>
    <style>
      .cls-1 {
        fill: #32373b;
        fill-rule: evenodd;
      }
    </style>
  </defs>
  <path id="_" data-name="" class="cls-1" d="M1532.44,691.9l-66.85,38.571a2.541,2.541,0,0,0,.32,4.581l18.96,7.754v18.161a2.622,2.622,0,0,0,.44,1.466,2.439,2.439,0,0,0,1.21.944,2.282,2.282,0,0,0,.92.161,2.363,2.363,0,0,0,1.89-.844l11.98-13.138,21.17,8.638a2.709,2.709,0,0,0,.96.2,2.486,2.486,0,0,0,1.25-.321,2.566,2.566,0,0,0,1.29-1.808l10.28-61.714a2.517,2.517,0,0,0-1.08-2.572,2.344,2.344,0,0,0-2.74-.08h0Zm-30.77,52.232,19.2-32.022-34.67,25.674-13.5-5.5,57.61-33.227-8.88,53.156Z" transform="translate(-1464.31 -691.5)"/>
</svg>
