<svg xmlns="http://www.w3.org/2000/svg" width="299.997" height="329.265" viewBox="0 0 41 45">
  <metadata><?xpacket begin="﻿" id="W5M0MpCehiHzreSzNTczkc9d"?>
<x:xmpmeta xmlns:x="adobe:ns:meta/" x:xmptk="Adobe XMP Core 5.6-c138 79.159824, 2016/09/14-01:09:01        ">
   <rdf:RDF xmlns:rdf="http://www.w3.org/1999/02/22-rdf-syntax-ns#">
      <rdf:Description rdf:about=""/>
   </rdf:RDF>
</x:xmpmeta>
                                                                                                    
                                                                                                    
                                                                                                    
                                                                                                    
                                                                                                    
                                                                                                    
                                                                                                    
                                                                                                    
                                                                                                    
                                                                                                    
                                                                                                    
                                                                                                    
                                                                                                    
                                                                                                    
                                                                                                    
                                                                                                    
                                                                                                    
                                                                                                    
                                                                                                    
                                                                                                    
                           
<?xpacket end="w"?></metadata>
<defs>
    <style>
      .cls-1 {
        fill: #efc823;
      }

      .cls-2 {
        fill: #fff;
        fill-rule: evenodd;
      }
    </style>
  </defs>
  <ellipse class="cls-1" cx="20.5" cy="22.5" rx="20.5" ry="22.5"/>
  <path id="_" data-name="" class="cls-2" d="M5.2,12.534v2.143H7.339a0.993,0.993,0,0,0,.343.753,1.154,1.154,0,0,0,.812.318H34.041a1.155,1.155,0,0,0,.812-0.318,0.994,0.994,0,0,0,.343-0.753h2.143V12.534L21.268,6.105ZM9.482,29.677H8.494a1.155,1.155,0,0,0-.812.318,0.994,0.994,0,0,0-.343.753v1.072H35.2V30.748a1,1,0,0,0-.343-0.753,1.156,1.156,0,0,0-.812-0.318H33.053V16.819H28.768V29.677H26.625V16.819H22.339V29.677H20.2V16.819H15.911V29.677H13.768V16.819H9.482V29.677ZM6.351,32.891a1.154,1.154,0,0,0-.812.318,0.993,0.993,0,0,0-.343.753v2.143H37.339V33.962A0.994,0.994,0,0,0,37,33.209a1.154,1.154,0,0,0-.812-0.318H6.351Z"/>
</svg>
